<svg width="58" height="55" viewBox="0 0 58 55" fill="none" xmlns="http://www.w3.org/2000/svg">
<g filter="url(#filter0_i_5_3883)">
<path d="M39.3567 16.8548C37.6608 6.95262 33.6608 0 29.0058 0C24.3509 0 20.3509 6.95262 18.655 16.8548H39.3567ZM17.7778 27.5C17.7778 29.9617 17.9181 32.3236 18.1637 34.5968H39.8363C40.0819 32.3236 40.2222 29.9617 40.2222 27.5C40.2222 25.0383 40.0819 22.6764 39.8363 20.4032H18.1637C17.9181 22.6764 17.7778 25.0383 17.7778 27.5ZM55.7544 16.8548C52.4094 9.3256 45.6374 3.50403 37.2749 1.15323C40.1287 4.90121 42.0936 10.5454 43.1228 16.8548H55.7544ZM20.7251 1.15323C12.3743 3.50403 5.59064 9.3256 2.25731 16.8548H14.8889C15.9064 10.5454 17.8713 4.90121 20.7251 1.15323ZM57.0058 20.4032H43.5906C43.8363 22.7319 43.9766 25.1159 43.9766 27.5C43.9766 29.8841 43.8363 32.2681 43.5906 34.5968H56.9942C57.6374 32.3236 58 29.9617 58 27.5C58 25.0383 57.6374 22.6764 57.0058 20.4032ZM14.0351 27.5C14.0351 25.1159 14.1754 22.7319 14.4211 20.4032H1.00585C0.374269 22.6764 0 25.0383 0 27.5C0 29.9617 0.374269 32.3236 1.00585 34.5968H14.4094C14.1754 32.2681 14.0351 29.8841 14.0351 27.5ZM18.655 38.1452C20.3509 48.0474 24.3509 55 29.0058 55C33.6608 55 37.6608 48.0474 39.3567 38.1452H18.655ZM37.2865 53.8468C45.6374 51.496 52.4211 45.6744 55.7661 38.1452H43.1345C42.1053 44.4546 40.1404 50.0988 37.2865 53.8468ZM2.25731 38.1452C5.60234 45.6744 12.3743 51.496 20.7368 53.8468C17.883 50.0988 15.9181 44.4546 14.8889 38.1452H2.25731Z" fill="#C6B9DE"/>
</g>
<g filter="url(#filter1_i_5_3883)">
<path d="M46.25 31.125H45.5V26.4801C45.5 25.9344 45.2609 25.4102 44.8391 25.0234L40.1562 20.7309C39.7344 20.3441 39.1625 20.125 38.5672 20.125H36.5V18.0625C36.5 16.9238 35.4922 16 34.25 16H19.25C18.0078 16 17 16.9238 17 18.0625V31.8125C17 32.9512 18.0078 33.875 19.25 33.875H20C20 36.1523 22.0156 38 24.5 38C26.9844 38 29 36.1523 29 33.875H35C35 36.1523 37.0156 38 39.5 38C41.9844 38 44 36.1523 44 33.875H46.25C46.6625 33.875 47 33.5656 47 33.1875V31.8125C47 31.4344 46.6625 31.125 46.25 31.125ZM24.5 35.9375C23.2578 35.9375 22.25 35.0137 22.25 33.875C22.25 32.7363 23.2578 31.8125 24.5 31.8125C25.7422 31.8125 26.75 32.7363 26.75 33.875C26.75 35.0137 25.7422 35.9375 24.5 35.9375ZM39.5 35.9375C38.2578 35.9375 37.25 35.0137 37.25 33.875C37.25 32.7363 38.2578 31.8125 39.5 31.8125C40.7422 31.8125 41.75 32.7363 41.75 33.875C41.75 35.0137 40.7422 35.9375 39.5 35.9375ZM43.25 27H36.5V22.1875H38.5672L43.25 26.4801V27Z" fill="#9379C1"/>
</g>
<defs>
<filter id="filter0_i_5_3883" x="0" y="0" width="58" height="59" filterUnits="userSpaceOnUse" color-interpolation-filters="sRGB">
<feFlood flood-opacity="0" result="BackgroundImageFix"/>
<feBlend mode="normal" in="SourceGraphic" in2="BackgroundImageFix" result="shape"/>
<feColorMatrix in="SourceAlpha" type="matrix" values="0 0 0 0 0 0 0 0 0 0 0 0 0 0 0 0 0 0 127 0" result="hardAlpha"/>
<feOffset dy="4"/>
<feGaussianBlur stdDeviation="2"/>
<feComposite in2="hardAlpha" operator="arithmetic" k2="-1" k3="1"/>
<feColorMatrix type="matrix" values="0 0 0 0 0 0 0 0 0 0 0 0 0 0 0 0 0 0 0.25 0"/>
<feBlend mode="normal" in2="shape" result="effect1_innerShadow_5_3883"/>
</filter>
<filter id="filter1_i_5_3883" x="17" y="16" width="30" height="23" filterUnits="userSpaceOnUse" color-interpolation-filters="sRGB">
<feFlood flood-opacity="0" result="BackgroundImageFix"/>
<feBlend mode="normal" in="SourceGraphic" in2="BackgroundImageFix" result="shape"/>
<feColorMatrix in="SourceAlpha" type="matrix" values="0 0 0 0 0 0 0 0 0 0 0 0 0 0 0 0 0 0 127 0" result="hardAlpha"/>
<feOffset dy="1"/>
<feGaussianBlur stdDeviation="0.5"/>
<feComposite in2="hardAlpha" operator="arithmetic" k2="-1" k3="1"/>
<feColorMatrix type="matrix" values="0 0 0 0 0 0 0 0 0 0 0 0 0 0 0 0 0 0 0.25 0"/>
<feBlend mode="normal" in2="shape" result="effect1_innerShadow_5_3883"/>
</filter>
</defs>
</svg>
